<svg width="38" height="38" viewBox="0 0 38 38" fill="none" xmlns="http://www.w3.org/2000/svg">
<g clip-path="url(#clip0)">
<path d="M26.8546 24.3847C26.8242 24.324 26.7905 24.265 26.7537 24.208C25.7409 22.9654 24.8103 21.6412 23.6926 20.503C22.4461 19.2364 21.8673 17.8358 22.1541 16.0844C22.1607 16.0429 22.1395 15.9907 22.1541 15.9505C22.2868 15.7095 22.3611 15.3975 22.5603 15.2502C23.1218 14.8298 23.7829 14.5379 24.3178 14.0894C25.9307 12.7383 27.752 12.2563 29.8162 12.496C30.2596 12.5469 30.5463 12.6473 30.7959 13.0316C31.3043 13.8055 31.8658 14.5433 32.4499 15.3574C33.4574 13.0905 34.4318 10.9254 35.3703 8.74552C35.4499 8.55941 35.3703 8.24073 35.2561 8.04256C34.5008 6.67949 33.6977 5.33918 32.9384 3.97477C32.7432 3.6253 32.5229 3.50881 32.1353 3.51952C30.3697 3.5637 28.6042 3.59316 26.84 3.59182C26.3327 3.59829 25.827 3.5311 25.3386 3.39231C21.7403 2.30239 18.1469 1.19417 14.5583 0.0676477C14.3829 0.00228311 14.1943 -0.0184725 14.009 0.00721726C13.8238 0.032907 13.6477 0.10425 13.4963 0.214935C9.29447 2.94019 5.08773 5.65696 0.876127 8.36526C0.610634 8.53531 0.353106 8.71071 0.0982324 8.88076C0.781877 10.1608 2.11332 10.442 3.38636 9.61318C6.8829 7.32755 10.3728 5.02988 13.8733 2.75095C14.0831 2.61705 14.4043 2.47244 14.6114 2.54207C16.1313 3.06694 17.634 3.6427 19.304 4.26399C18.4 4.67505 17.5902 4.94954 16.88 5.38872C15.6707 6.13453 14.4999 6.23094 13.2335 5.56814C13.0211 5.45701 12.6056 5.53199 12.3879 5.67794C11.3073 6.40232 10.264 7.17491 9.20198 7.93679C7.98072 8.82051 7.95948 8.83122 8.41745 10.3068C8.56746 10.7901 8.45197 11.0191 8.05771 11.2963C5.57668 13.0369 3.11556 14.7963 0.64913 16.5531C0.438063 16.7097 0.217704 16.8691 0 17.0364C0.856215 18.1933 2.08014 18.4009 3.22441 17.5948C5.38552 16.0728 7.53823 14.5366 9.68253 12.986C9.84509 12.8534 10.0357 12.7603 10.2396 12.7139C10.4436 12.6674 10.6554 12.6689 10.8587 12.7183C11.6405 12.8843 12.4383 12.974 13.2215 13.0958C13.2897 12.8218 13.3035 12.5368 13.2621 12.2573C13.2206 11.9779 13.1248 11.7094 12.98 11.4675C12.8353 11.2256 12.6446 11.0149 12.4188 10.8476C12.193 10.6804 11.9366 10.5598 11.6644 10.4929C11.4998 10.45 11.3113 10.4594 11.1693 10.3804C11.0272 10.3014 10.8215 10.1501 10.771 9.99077C10.7352 9.87696 10.8693 9.65201 10.9888 9.55426C11.3326 9.26906 11.7467 9.06152 12.064 8.75088C12.7808 8.05194 13.5348 7.93277 14.3964 8.4389C14.8981 8.73347 15.372 8.65447 15.8977 8.40543C18.0146 7.40834 20.1456 6.44115 22.2908 5.50387C22.6913 5.33998 23.1334 5.3104 23.5519 5.41952C24.9766 5.85478 26.4664 6.03248 27.9524 5.9444C28.6042 5.89753 29.2626 5.93636 29.9516 5.93636C30.0081 6.18927 30.0401 6.44712 30.0472 6.70627C30.01 7.34496 30.2848 7.77745 30.7627 8.17914C31.3507 8.66519 31.8777 9.22621 32.4592 9.7859L31.9826 10.4929C31.5976 10.359 31.3189 10.1889 31.0388 10.1836C29.5502 10.1568 28.0617 10.1568 26.5732 10.1836C26.2801 10.1948 25.9948 10.2819 25.7448 10.4366C23.9209 11.5788 22.1195 12.7557 20.2916 13.8912C19.9067 14.1295 19.7925 14.4054 19.8031 14.8285C19.827 15.8354 19.8429 16.8463 19.7938 17.8519C19.7652 18.1733 19.6161 18.4716 19.377 18.6861C17.5916 20.108 15.7756 21.4979 13.9716 22.8904C12.6587 23.9067 11.3458 24.9243 9.98917 25.9808C12.2087 29.2505 14.4017 32.4815 16.592 35.7111C17.7429 34.9907 18.019 33.724 17.2677 32.5672C16.4606 31.33 15.611 30.1249 14.784 28.8997C14.253 28.1084 13.722 27.3144 13.1525 26.4789L20.7191 20.6383L23.5652 23.9656L18.0469 28.257L24.655 37.9927C25.8072 37.2268 26.0701 35.9548 25.3187 34.8274C24.1811 33.1175 23.0169 31.4264 21.8673 29.7272C21.6549 29.4139 21.4465 29.0992 21.2195 28.7578L26.8546 24.3847ZM8.5356 33.4375C9.66792 32.6703 9.94005 31.4157 9.21791 30.3056C8.38028 29.0135 7.49221 27.7536 6.63201 26.4775C6.13023 25.7384 5.63243 24.9953 5.11207 24.2254C5.29526 24.0674 5.43198 23.9388 5.57933 23.8237C7.49088 22.3205 9.40332 20.8181 11.3166 19.3167C13.1286 17.8934 14.9499 16.4808 16.7499 15.044C17.8385 14.1737 17.9752 12.7397 17.0606 11.8479L1.92084 23.6978L8.5356 33.4375ZM24.3178 29.8571C25.4355 31.33 26.5241 32.7801 27.6458 34.2034C27.7493 34.3373 28.1011 34.3855 28.2803 34.3185C31.3693 33.1804 34.4477 32.0088 37.5354 30.868C37.9057 30.7341 38.0027 30.54 38 30.1677C37.9827 28.324 38 26.4802 37.9894 24.6364C37.9797 24.4681 37.9607 24.3005 37.9323 24.1343C35.9411 24.1343 34.0123 24.1343 32.0782 24.1437C31.9873 24.1466 31.8978 24.1678 31.8151 24.2059C31.7323 24.2441 31.658 24.2985 31.5963 24.366C31.0043 25.1694 30.4401 25.9834 29.8706 26.7922C30.7574 27.5072 31.7742 27.5085 32.5972 26.8417C32.7446 26.7239 32.8986 26.5271 33.0539 26.5217C33.9154 26.4896 34.7796 26.507 35.6902 26.507C35.6902 27.3023 35.7154 28.0093 35.6716 28.7109C35.661 28.8796 35.4513 29.1126 35.2734 29.1809C33.2132 29.9843 31.141 30.7422 29.0794 31.5348C28.7303 31.6687 28.5325 31.5817 28.3307 31.2965C28.0421 30.874 27.7319 30.4669 27.4015 30.0767C26.5798 29.1381 25.3652 29.0363 24.3178 29.8571ZM35.0039 15.7979C33.8198 16.3696 33.3937 17.6082 33.9539 18.7892C34.234 19.3796 34.5526 19.9514 34.8592 20.5405C33.3831 21.0306 32.7658 21.8112 32.957 22.9507C33.7919 22.9507 34.6535 22.8436 35.4791 22.9761C36.6964 23.1703 37.3203 22.5865 37.7239 21.5702C37.7863 21.4135 37.8327 21.1832 37.765 21.052C36.8557 19.2873 35.9265 17.5386 35.0039 15.7979ZM23.986 6.75447L18.7199 9.6587C18.708 9.73636 18.6947 9.81536 18.6827 9.89302C18.9475 10.0276 19.2223 10.1413 19.5044 10.2331C19.7699 10.2987 20.05 10.2572 20.3182 10.2987C21.1531 10.4326 21.9868 10.5665 22.8735 10.7218C23.2346 9.43777 23.589 8.17512 23.9886 6.75179L23.986 6.75447ZM31.5791 15.6814H25.6599L25.5165 15.8247C25.6971 16.067 25.8418 16.3509 26.0661 16.5383C26.3528 16.7794 26.7152 16.9253 27.0219 17.1449C27.6564 17.6001 28.2737 18.0822 28.9334 18.5709L31.5791 15.6814Z" fill="#FFEC42"/>
<path d="M26.8567 24.3847L21.219 28.7632C21.4459 29.1046 21.6544 29.4193 21.8668 29.7326C23.019 31.4317 24.1832 33.1228 25.3182 34.8327C26.0682 35.9601 25.8053 37.2321 24.6544 37.998L18.0463 28.2624L23.5672 23.9656L20.7198 20.6329L13.1533 26.4735C13.7148 27.313 14.2458 28.1084 14.7861 28.8997C15.6131 30.1249 16.4626 31.33 17.2658 32.5672C18.0171 33.724 17.741 34.9907 16.5901 35.7111C14.3998 32.4815 12.2095 29.2505 9.98728 25.9808C11.3479 24.9243 12.6608 23.9067 13.9697 22.8904C15.7737 21.4925 17.5897 20.108 19.3751 18.6861C19.6142 18.4716 19.7633 18.1733 19.7919 17.8519C19.841 16.8463 19.8251 15.8354 19.8012 14.8285C19.7906 14.4 19.9048 14.1242 20.2897 13.8912C22.1176 12.7557 23.919 11.5788 25.743 10.4366C25.9932 10.278 26.28 10.1875 26.5753 10.1742C28.0629 10.1492 29.5514 10.1492 31.0409 10.1742C31.3223 10.1742 31.5997 10.3523 31.9847 10.4835L32.4612 9.77653C31.8798 9.2222 31.3528 8.66117 30.7647 8.16977C30.2869 7.76807 30.0121 7.33693 30.0492 6.6969C30.0421 6.43775 30.0101 6.1799 29.9537 5.92699C29.2647 5.92699 28.6063 5.88816 27.9545 5.93502C26.4685 6.0231 24.9787 5.84541 23.554 5.41015C23.1355 5.30103 22.6934 5.33061 22.2929 5.4945C20.1459 6.43357 18.0149 7.40432 15.8998 8.40676C15.3688 8.65581 14.9002 8.73481 14.3984 8.44024C13.5369 7.93411 12.7829 8.05328 12.0661 8.75222C11.7488 9.06152 11.3347 9.26906 10.9908 9.5556C10.8714 9.65335 10.7373 9.87829 10.7731 9.99211C10.8236 10.1514 11.0108 10.292 11.1714 10.3817C11.332 10.4715 11.5019 10.4514 11.6665 10.4942C11.9386 10.5611 12.1948 10.6817 12.4205 10.8488C12.6462 11.016 12.8368 11.2266 12.9816 11.4683C13.1263 11.7101 13.2222 11.9784 13.2637 12.2577C13.3053 12.537 13.2916 12.8219 13.2236 13.0958C12.4404 12.974 11.6426 12.8843 10.8607 12.7183C10.6575 12.6689 10.4457 12.6674 10.2417 12.7139C10.0378 12.7603 9.84717 12.8534 9.68462 12.986C7.54209 14.5384 5.38983 16.0746 3.22783 17.5948C2.08355 18.3982 0.859632 18.1933 0.00341797 17.0364C0.221122 16.8744 0.436171 16.7097 0.65653 16.5531C3.12296 14.7963 5.58408 13.0316 8.06511 11.2963C8.46335 11.0191 8.57485 10.7901 8.42485 10.3068C7.96688 8.8339 7.98812 8.82051 9.20938 7.93679C10.2634 7.17491 11.3094 6.40232 12.3873 5.67794C12.605 5.53199 13.0205 5.45701 13.2329 5.56814C14.4993 6.23094 15.6702 6.13453 16.8795 5.38872C17.5897 4.94954 18.3994 4.67505 19.3034 4.26399C17.6335 3.6427 16.1308 3.06694 14.6108 2.54207C14.4091 2.47244 14.0798 2.61437 13.8728 2.75095C10.3722 5.0272 6.88234 7.32755 3.3858 9.61318C2.11541 10.442 0.783967 10.1608 0.100323 8.88076C0.355196 8.71071 0.614052 8.53531 0.878217 8.36526C5.08628 5.64982 9.29346 2.93305 13.4997 0.214935C13.6511 0.10425 13.8272 0.032907 14.0125 0.00721726C14.1977 -0.0184725 14.3863 0.00228311 14.5617 0.0676477C18.1512 1.19149 21.7446 2.29971 25.3421 3.39231C25.8304 3.5311 26.3361 3.59829 26.8434 3.59182C28.6076 3.59182 30.3731 3.5637 32.1387 3.51952C32.5263 3.50881 32.7467 3.6253 32.9418 3.97477C33.7011 5.33918 34.5042 6.67949 35.2662 8.04123C35.3764 8.23939 35.46 8.55807 35.3803 8.74418C34.4405 10.924 33.4661 13.0891 32.4599 15.356C31.8758 14.5419 31.3143 13.8042 30.8059 13.0302C30.5563 12.6473 30.2749 12.5469 29.8262 12.4946C27.762 12.255 25.9407 12.737 24.3279 14.088C23.7969 14.5366 23.1332 14.8285 22.5703 15.2489C22.3712 15.3962 22.2915 15.7082 22.1641 15.9492C22.1455 15.9827 22.1641 16.0349 22.1641 16.0831C21.8774 17.8412 22.4561 19.2417 23.7026 20.5017C24.8204 21.6398 25.7509 22.9641 26.7638 24.2066C26.7979 24.2643 26.8289 24.3237 26.8567 24.3847Z" fill="#FFEC42"/>
<path d="M8.53565 33.4395L1.9209 23.6998L17.054 11.8526C17.9686 12.7443 17.8319 14.1784 16.7434 15.0487C14.9433 16.4854 13.122 17.898 11.3101 19.3214C9.39939 20.8219 7.48784 22.3233 5.57541 23.8257C5.42806 23.9408 5.29133 24.0693 5.10814 24.2273C5.62851 24.9972 6.12631 25.7404 6.62809 26.4795C7.49094 27.7555 8.37636 29.0155 9.21399 30.3076C9.93613 31.4176 9.664 32.6709 8.53565 33.4395Z" fill="#FFEC42"/>
<path d="M24.3179 29.8591C25.3652 29.0369 26.5746 29.1387 27.4002 30.0786C27.7306 30.4688 28.0408 30.876 28.3295 31.2985C28.5312 31.5837 28.7277 31.6707 29.0782 31.5368C31.1397 30.7441 33.2119 29.9809 35.2721 29.1829C35.4433 29.1173 35.6531 28.8816 35.6703 28.7129C35.7142 28.0113 35.6889 27.3043 35.6889 26.509C34.777 26.509 33.9141 26.4915 33.0526 26.5237C32.8973 26.5237 32.7433 26.7259 32.5959 26.8437C31.7729 27.5132 30.7561 27.5132 29.8693 26.7942C30.4401 25.9908 31.0043 25.166 31.595 24.3679C31.6567 24.3005 31.7311 24.2461 31.8138 24.2079C31.8965 24.1697 31.986 24.1486 32.0769 24.1457C34.011 24.1309 35.9438 24.1363 37.931 24.1363C37.9594 24.3024 37.9785 24.4701 37.9881 24.6384C37.9881 26.4822 37.9815 28.3259 37.9987 30.1697C37.9987 30.5419 37.9045 30.7334 37.5341 30.87C34.4464 32.0108 31.368 33.1824 28.279 34.3205C28.0998 34.3875 27.748 34.3366 27.6445 34.2054C26.5241 32.7834 25.4356 31.3319 24.3179 29.8591Z" fill="#FFEC42"/>
<path d="M35.004 15.7999C35.9266 17.5406 36.8558 19.2919 37.7638 21.05C37.8315 21.1839 37.785 21.4115 37.7226 21.5682C37.3244 22.5845 36.6952 23.1682 35.4779 22.9741C34.6535 22.8402 33.792 22.9487 32.9557 22.9487C32.7645 21.8132 33.3818 21.0326 34.8579 20.5385C34.5513 19.9494 34.2327 19.3776 33.9526 18.7871C33.3938 17.6075 33.8199 16.369 35.004 15.7999Z" fill="#FFEC42"/>
<path d="M23.9885 6.75378C23.5903 8.17711 23.2345 9.43976 22.8734 10.7238C21.9867 10.5752 21.1477 10.4293 20.3181 10.3007C20.0526 10.2592 19.7645 10.3007 19.5043 10.2351C19.2221 10.1433 18.9474 10.0296 18.6826 9.89501C18.6946 9.81735 18.7078 9.73835 18.7198 9.66069L23.9885 6.75378Z" fill="#FFEC42"/>
<path d="M31.5816 15.6807L28.9267 18.5702C28.2629 18.0761 27.6496 17.5994 27.0151 17.1442C26.7085 16.9246 26.3514 16.7786 26.0593 16.5376C25.835 16.3502 25.6903 16.0663 25.5098 15.824L25.6531 15.6807H31.5816ZM27.9868 16.6581C28.3532 16.9259 28.5643 17.0826 28.8152 17.2674L29.3461 16.6581H27.9868Z" fill="#FFEC42"/>
</g>
<defs>
<clipPath id="clip0">
<rect width="38" height="38" fill="white"/>
</clipPath>
</defs>
</svg>
